<svg viewBox="0 0 480 320" xmlns="http://www.w3.org/2000/svg">
  <defs>
    <linearGradient id="cd-bg" x1="0" y1="0" x2="1" y2="1">
      <stop offset="0%" stop-color="#16212c"/>
      <stop offset="100%" stop-color="#1c2a37"/>
    </linearGradient>
  </defs>
  <rect width="480" height="320" rx="16" fill="url(#cd-bg)"/>

  <line x1="40" y1="235" x2="440" y2="235" stroke="#334a5e" stroke-width="3"/>

  <path d="M100 210
           C100 180 130 165 160 165
           L180 140 C190 130 205 125 220 125
           L280 125 C300 125 320 135 330 150
           L355 165
           C375 165 390 180 390 200
           L390 210 Z"
        fill="#ff7a59"/>
  <path d="M195 165 L210 138 C215 132 222 129 230 129 L270 129 C282 129 294 135 300 145 L312 165 Z"
        fill="#16212c" opacity="0.6"/>

  <circle cx="150" cy="215" r="24" fill="#0f1720" stroke="#9fb0bf" stroke-width="3"/>
  <circle cx="150" cy="215" r="9" fill="#9fb0bf"/>
  <circle cx="340" cy="215" r="24" fill="#0f1720" stroke="#9fb0bf" stroke-width="3"/>
  <circle cx="340" cy="215" r="9" fill="#9fb0bf"/>

  <g transform="translate(360 90) rotate(15)">
    <rect x="-30" y="-16" width="60" height="32" rx="6" fill="#f5c451"/>
    <circle cx="-18" cy="0" r="4" fill="#0f1720"/>
    <text x="6" y="5" text-anchor="middle" font-family="sans-serif" font-weight="bold" font-size="13" fill="#0f1720">SALE</text>
  </g>

  <g fill="#4da3ff" opacity="0.4">
    <circle cx="60" cy="70" r="3"/>
    <circle cx="80" cy="60" r="3"/>
    <circle cx="100" cy="75" r="3"/>
  </g>
</svg>
