<svg viewBox="0 0 480 320" xmlns="http://www.w3.org/2000/svg">
  <defs>
    <linearGradient id="pv-bg" x1="0" y1="0" x2="1" y2="1">
      <stop offset="0%" stop-color="#16212c"/>
      <stop offset="100%" stop-color="#1c2a37"/>
    </linearGradient>
    <linearGradient id="pv-shield" x1="0" y1="0" x2="0" y2="1">
      <stop offset="0%" stop-color="#7cbcff"/>
      <stop offset="100%" stop-color="#4da3ff"/>
    </linearGradient>
  </defs>
  <rect width="480" height="320" rx="16" fill="url(#pv-bg)"/>

  <g opacity="0.35" font-family="monospace" font-size="13" fill="#4da3ff">
    <text x="30" y="40">01001</text>
    <text x="30" y="60">11010</text>
    <text x="380" y="260">10110</text>
    <text x="380" y="280">00101</text>
  </g>

  <circle cx="240" cy="165" r="95" fill="#0f1720" opacity="0.4"/>

  <path d="M240 70 L305 95 V165 C305 210 275 235 240 250 C205 235 175 210 175 165 V95 Z"
        fill="url(#pv-shield)" stroke="#08131f" stroke-width="3"/>

  <rect x="215" y="150" width="50" height="38" rx="6" fill="#0f1720"/>
  <path d="M225 150 V135 a15 15 0 0 1 30 0 V150" fill="none" stroke="#0f1720" stroke-width="8"/>
  <circle cx="240" cy="167" r="6" fill="#4da3ff"/>
  <rect x="237" y="170" width="6" height="12" rx="3" fill="#4da3ff"/>

  <g fill="none" stroke="#9fb0bf" stroke-width="2" opacity="0.5">
    <circle cx="90" cy="220" r="4"/>
    <circle cx="110" cy="230" r="4"/>
    <circle cx="70" cy="235" r="4"/>
    <line x1="90" y1="220" x2="110" y2="230"/>
    <line x1="90" y1="220" x2="70" y2="235"/>
  </g>
</svg>
