<svg viewBox="0 0 480 320" xmlns="http://www.w3.org/2000/svg">
  <defs>
    <linearGradient id="sm-bg" x1="0" y1="0" x2="1" y2="1">
      <stop offset="0%" stop-color="#16212c"/>
      <stop offset="100%" stop-color="#1c2a37"/>
    </linearGradient>
  </defs>
  <rect width="480" height="320" rx="16" fill="url(#sm-bg)"/>

  <polyline points="70,240 130,190 190,215 250,140 310,165 400,90"
            fill="none" stroke="#3ecf8e" stroke-width="4" stroke-linecap="round" stroke-linejoin="round"/>
  <g fill="#3ecf8e">
    <circle cx="70" cy="240" r="5"/>
    <circle cx="130" cy="190" r="5"/>
    <circle cx="190" cy="215" r="5"/>
    <circle cx="250" cy="140" r="5"/>
    <circle cx="310" cy="165" r="5"/>
    <circle cx="400" cy="90" r="5"/>
  </g>

  <g stroke="#e6edf3" stroke-width="10" stroke-linecap="round">
    <line x1="140" y1="90" x2="260" y2="90"/>
  </g>
  <g fill="#7cbcff">
    <rect x="110" y="70" width="18" height="40" rx="6"/>
    <rect x="95" y="78" width="14" height="24" rx="5"/>
    <rect x="272" y="70" width="18" height="40" rx="6"/>
    <rect x="291" y="78" width="14" height="24" rx="5"/>
  </g>

  <g opacity="0.6" font-family="monospace" font-size="12" fill="#9fb0bf">
    <text x="330" y="230">BMI 22.4</text>
    <text x="330" y="248">1RM 120kg</text>
  </g>
</svg>
