<svg viewBox="0 0 480 320" xmlns="http://www.w3.org/2000/svg">
  <defs>
    <linearGradient id="sp-bg" x1="0" y1="0" x2="1" y2="1">
      <stop offset="0%" stop-color="#16212c"/>
      <stop offset="100%" stop-color="#1c2a37"/>
    </linearGradient>
  </defs>
  <rect width="480" height="320" rx="16" fill="url(#sp-bg)"/>

  <g stroke="#f5a623" stroke-width="2" opacity="0.7" fill="none">
    <line x1="150" y1="90" x2="90" y2="160"/>
    <line x1="150" y1="90" x2="240" y2="150"/>
    <line x1="240" y1="150" x2="330" y2="100"/>
    <line x1="240" y1="150" x2="230" y2="230"/>
    <line x1="90" y1="160" x2="120" y2="240"/>
  </g>

  <g>
    <rect x="115" y="65" width="70" height="50" rx="8" fill="#1c2a37" stroke="#f5a623" stroke-width="2.5"/>
    <text x="150" y="96" text-anchor="middle" font-family="monospace" font-size="16" fill="#f5a623">S</text>

    <rect x="55" y="135" width="70" height="50" rx="8" fill="#1c2a37" stroke="#7cbcff" stroke-width="2.5"/>
    <text x="90" y="166" text-anchor="middle" font-family="monospace" font-size="16" fill="#7cbcff">O</text>

    <rect x="205" y="125" width="70" height="50" rx="8" fill="#1c2a37" stroke="#3ecf8e" stroke-width="2.5"/>
    <text x="240" y="156" text-anchor="middle" font-family="monospace" font-size="16" fill="#3ecf8e">L</text>

    <rect x="295" y="75" width="70" height="50" rx="8" fill="#1c2a37" stroke="#ff8fa3" stroke-width="2.5"/>
    <text x="330" y="106" text-anchor="middle" font-family="monospace" font-size="16" fill="#ff8fa3">I</text>

    <rect x="195" y="205" width="70" height="50" rx="8" fill="#1c2a37" stroke="#c084fc" stroke-width="2.5"/>
    <text x="230" y="236" text-anchor="middle" font-family="monospace" font-size="16" fill="#c084fc">D</text>

    <rect x="85" y="215" width="70" height="50" rx="8" fill="#1c2a37" stroke="#4da3ff" stroke-width="2.5"/>
    <text x="120" y="246" text-anchor="middle" font-family="monospace" font-size="16" fill="#4da3ff">P</text>
  </g>
</svg>
